<svg width="76" height="76" viewBox="0 0 76 76" fill="none" xmlns="http://www.w3.org/2000/svg">
<g opacity="0.1">
<rect width="76" height="76" rx="38" fill="white"/>
<rect x="1" y="1" width="74" height="74" rx="37" stroke="#13316B" stroke-opacity="0.2" stroke-width="2"/>
</g>
<path opacity="0.8" d="M38 56C29.1088 53.9791 22 45.3996 22 36.3636V26.5455L38 20L54 26.5455V36.3636C54 45.4029 46.8912 53.9791 38 56ZM25.2 28.1818V36.3636C25.2914 40.1471 26.5926 43.7957 28.9043 46.751C31.216 49.7063 34.4109 51.8055 38 52.7273C41.5891 51.8055 44.784 49.7063 47.0957 46.751C49.4074 43.7957 50.7086 40.1471 50.8 36.3636V28.1818L38 23.2727L25.2 28.1818Z" fill="white"/>
<path d="M38 36.3637C40.2091 36.3637 42 34.5321 42 32.2728C42 30.0134 40.2091 28.1819 38 28.1819C35.7909 28.1819 34 30.0134 34 32.2728C34 34.5321 35.7909 36.3637 38 36.3637Z" fill="#48D6D2"/>
<path d="M30 42.9091C30.7886 44.3789 31.9449 45.608 33.3506 46.4705C34.7563 47.3331 36.3608 47.7982 38 47.8182C39.6392 47.7982 41.2437 47.3331 42.6494 46.4705C44.055 45.608 45.2114 44.3789 46 42.9091C45.96 39.8065 40.6528 38 38 38C35.3328 38 30.04 39.8065 30 42.9091Z" fill="#48D6D2"/>
</svg>
