<svg width="76" height="76" viewBox="0 0 76 76" fill="none" xmlns="http://www.w3.org/2000/svg">
<g opacity="0.1">
<rect width="76" height="76" rx="38" fill="white"/>
<rect x="1" y="1" width="74" height="74" rx="37" stroke="#13316B" stroke-opacity="0.2" stroke-width="2"/>
</g>
<path opacity="0.8" d="M38 22C34.8355 22 31.7421 22.9384 29.1109 24.6965C26.4797 26.4546 24.4289 28.9534 23.2179 31.8771C22.0069 34.8007 21.6901 38.0177 22.3074 41.1214C22.9248 44.2251 24.4487 47.0761 26.6863 49.3137C28.9239 51.5513 31.7749 53.0752 34.8786 53.6926C37.9823 54.3099 41.1993 53.9931 44.1229 52.7821C47.0466 51.5711 49.5454 49.5203 51.3035 46.8891C53.0616 44.2579 54 41.1645 54 38C54 35.8988 53.5861 33.8183 52.7821 31.8771C51.978 29.9359 50.7994 28.172 49.3137 26.6863C47.828 25.2006 46.0641 24.022 44.1229 23.2179C42.1817 22.4139 40.1012 22 38 22ZM38 50.8C35.4684 50.8 32.9937 50.0493 30.8887 48.6428C28.7838 47.2363 27.1432 45.2372 26.1743 42.8983C25.2055 40.5594 24.9521 37.9858 25.446 35.5028C25.9398 33.0199 27.1589 30.7391 28.949 28.949C30.7392 27.1589 33.0199 25.9398 35.5028 25.4459C37.9858 24.9521 40.5595 25.2055 42.8984 26.1743C45.2372 27.1431 47.2363 28.7837 48.6428 30.8887C50.0493 32.9936 50.8 35.4684 50.8 38C50.8 41.3948 49.4514 44.6505 47.051 47.051C44.6505 49.4514 41.3948 50.8 38 50.8Z" fill="white"/>
<path d="M37.9982 33.1775C39.3175 33.1775 40.387 32.108 40.387 30.7887C40.387 29.4695 39.3175 28.3999 37.9982 28.3999C36.6789 28.3999 35.6094 29.4695 35.6094 30.7887C35.6094 32.108 36.6789 33.1775 37.9982 33.1775Z" fill="#48D6D2"/>
<path d="M37.9982 47.5775C39.3175 47.5775 40.387 46.508 40.387 45.1887C40.387 43.8694 39.3175 42.7999 37.9982 42.7999C36.6789 42.7999 35.6094 43.8694 35.6094 45.1887C35.6094 46.508 36.6789 47.5775 37.9982 47.5775Z" fill="#48D6D2"/>
<path d="M45.1935 40.3887C46.5128 40.3887 47.5823 39.3192 47.5823 37.9999C47.5823 36.6806 46.5128 35.6111 45.1935 35.6111C43.8742 35.6111 42.8047 36.6806 42.8047 37.9999C42.8047 39.3192 43.8742 40.3887 45.1935 40.3887Z" fill="#48D6D2"/>
<path d="M30.7931 40.3887C32.1124 40.3887 33.1819 39.3192 33.1819 37.9999C33.1819 36.6806 32.1124 35.6111 30.7931 35.6111C29.4738 35.6111 28.4043 36.6806 28.4043 37.9999C28.4043 39.3192 29.4738 40.3887 30.7931 40.3887Z" fill="#48D6D2"/>
<path d="M37.9984 39.5999C38.8821 39.5999 39.5984 38.8836 39.5984 37.9999C39.5984 37.1162 38.8821 36.3999 37.9984 36.3999C37.1148 36.3999 36.3984 37.1162 36.3984 37.9999C36.3984 38.8836 37.1148 39.5999 37.9984 39.5999Z" fill="#48D6D2"/>
</svg>
