<svg width="76" height="76" viewBox="0 0 76 76" fill="none" xmlns="http://www.w3.org/2000/svg">
<g opacity="0.1">
<rect width="76" height="76" rx="38" fill="white"/>
<rect x="1" y="1" width="74" height="74" rx="37" stroke="#13316B" stroke-opacity="0.2" stroke-width="2"/>
</g>
<path opacity="0.8" d="M22 25.0476V28.0952H54V25.0476C53.9996 24.2395 53.693 23.4645 53.1475 22.8931C52.602 22.3216 51.8623 22.0004 51.0909 22H24.9091C24.1377 22.0004 23.398 22.3216 22.8525 22.8931C22.307 23.4645 22.0004 24.2395 22 25.0476ZM26.3738 26.5836C26.0861 26.5839 25.8047 26.4948 25.5653 26.3276C25.3259 26.1603 25.1393 25.9224 25.029 25.644C24.9186 25.3656 24.8896 25.0592 24.9456 24.7635C25.0015 24.4678 25.14 24.1961 25.3433 23.9829C25.5467 23.7696 25.8059 23.6243 26.0881 23.5654C26.3703 23.5065 26.6628 23.5366 26.9287 23.6518C27.1945 23.7671 27.4218 23.9624 27.5817 24.2131C27.7416 24.4637 27.8269 24.7584 27.8269 25.0598C27.8269 25.4639 27.6737 25.8515 27.4009 26.1373C27.1281 26.4231 26.7581 26.5836 26.3724 26.5836H26.3738ZM30.7331 26.5821C30.4454 26.5821 30.1642 26.4927 29.925 26.3253C29.6858 26.1578 29.4994 25.9199 29.3893 25.6414C29.2792 25.363 29.2504 25.0566 29.3065 24.761C29.3626 24.4654 29.5012 24.1939 29.7046 23.9808C29.908 23.7677 30.1672 23.6226 30.4493 23.5638C30.7315 23.505 31.0239 23.5351 31.2897 23.6505C31.5555 23.7658 31.7827 23.9611 31.9425 24.2117C32.1023 24.4623 32.1876 24.7569 32.1876 25.0583C32.1869 25.4622 32.0334 25.8493 31.7608 26.1349C31.4881 26.4205 31.1186 26.5813 30.7331 26.5821ZM22 29.619V50.9524C22 51.7607 22.3065 52.5358 22.8521 53.1074C23.3976 53.6789 24.1376 54 24.9091 54H51.0909C51.8624 54 52.6024 53.6789 53.1479 53.1074C53.6935 52.5358 54 51.7607 54 50.9524V29.619H22ZM51.0909 50.9524H24.9091V32.6667H51.0909V50.9524Z" fill="white"/>
<path d="M33.6365 47.9051L34.6547 46.8384L35.6729 45.7717L33.782 43.7908L31.8911 41.8098L33.782 39.8289L35.6729 37.8479L34.6547 36.7813L33.6365 35.7146L30.7275 38.7622L27.8184 41.8098L30.7275 44.8575L33.6365 47.9051ZM40.3275 45.7717L41.3456 46.8384L42.3638 47.9051L45.2729 44.8575L48.182 41.8098L45.2729 38.7622L42.3638 35.7146L41.3456 36.7813L40.3275 37.8479L42.2184 39.8289L44.1093 41.8098L42.2184 43.7908L40.3275 45.7717Z" fill="black"/>
<path d="M33.6365 47.9051L34.6547 46.8384L35.6729 45.7717L33.782 43.7908L31.8911 41.8098L33.782 39.8289L35.6729 37.8479L34.6547 36.7813L33.6365 35.7146L30.7275 38.7622L27.8184 41.8098L30.7275 44.8575L33.6365 47.9051ZM40.3275 45.7717L41.3456 46.8384L42.3638 47.9051L45.2729 44.8575L48.182 41.8098L45.2729 38.7622L42.3638 35.7146L41.3456 36.7813L40.3275 37.8479L42.2184 39.8289L44.1093 41.8098L42.2184 43.7908L40.3275 45.7717Z" fill="#48D6D2"/>
</svg>
